:FULLY-SPECIFIED
:FORCE-ALL-JOINTS-BE-3DOF
:DEGREES
2956
root -5.94803 13.1466 -28.7548 1252.17 -64.2852 -169.695
lfemur -69.9921 47.8611 -8.49006
ltibia 84.0565 0 0
lfoot -8.40447 -4.84813 0
ltoes -36.8777 0 0
rfemur -34.8145 -19.918 21.1187
rtibia 93.624 0 0
rfoot -41.4503 -30.4141 0
rtoes -14.2613 0 0
lowerback 16.6093 5.14001 0.950585
upperback -4.53732 7.35838 1.70636
thorax -14.5733 3.38404 -0.74104
lowerneck -3.36291 10.8123 2.46184
upperneck 8.83177 14.217 0.960616
head 3.46631 7.13322 0.426185
lclavicle 4.1255e-14 -5.68191e-15 0
lhumerus 4.89134 15.9396 81.9117
lradius 90.9886 0 0
lwrist -20.0048 0 0
lhand -40.8699 390.449 0
lfingers 7.12502 0 0
lthumb -13.8079 -659.995 0
rclavicle 4.1255e-14 -5.68191e-15 0
rhumerus -62.116 55.9998 -111.519
rradius 113.173 0 0
rwrist -80.558 0 0
rhand 6.82513 -384.189 0
rfingers 7.12502 0 0
rthumb 32.1289 308.419 0
2957
root -5.93886 13.1468 -28.7559 1251.84 -64.5162 -169.292
lfemur -69.9246 47.342 -8.44492
ltibia 83.6306 0 0
lfoot -8.06162 -4.68748 0
ltoes -36.7132 0 0
rfemur -34.9342 -19.7933 21.2484
rtibia 93.545 0 0
rfoot -41.368 -30.5589 0
rtoes -14.045 0 0
lowerback 16.6454 5.12945 0.903798
upperback -4.50225 7.33167 1.69188
thorax -14.5585 3.37538 -0.725415
lowerneck -3.34716 10.7487 2.39025
upperneck 8.65711 14.1428 0.899935
head 3.4066 7.09346 0.410883
lclavicle 3.20326e-14 -7.1042e-15 0
lhumerus 4.96305 15.9836 81.7548
lradius 90.8967 0 0
lwrist -19.7059 0 0
lhand -40.7231 390.451 0
lfingers 7.12502 0 0
lthumb -13.6662 -659.987 0
rclavicle 3.20326e-14 -7.1042e-15 0
rhumerus -61.2 55.595 -110.76
rradius 112.928 0 0
rwrist -80.2383 0 0
rhand 6.3865 -384.21 0
rfingers 7.12502 0 0
rthumb 31.7093 308.334 0
2958
root -5.92969 13.1469 -28.7569 1251.18 -64.8829 -168.521
lfemur -69.7928 46.5657 -8.34144
ltibia 82.9337 0 0
lfoot -7.58425 -4.44977 0
ltoes -36.5241 0 0
rfemur -35.0736 -19.5943 21.4599
rtibia 93.3764 0 0
rfoot -41.2435 -30.7521 0
rtoes -13.7488 0 0
lowerback 16.6829 5.12142 0.856445
upperback -4.45428 7.30638 1.66681
thorax -14.5279 3.3674 -0.720816
lowerneck -3.3173 10.6347 2.28021
upperneck 8.42221 14.0032 0.840598
head 3.3238 7.02082 0.398593
lclavicle 2.24064e-14 -8.30098e-15 0
lhumerus 5.07571 16.0046 81.5676
lradius 90.7712 0 0
lwrist -19.279 0 0
lhand -40.5088 390.458 0
lfingers 7.12502 0 0
lthumb -13.4595 -659.97 0
rclavicle 2.24064e-14 -8.30098e-15 0
rhumerus -59.8726 54.9265 -109.712
rradius 112.588 0 0
rwrist -79.8387 0 0
rhand 5.79724 -384.26 0
rfingers 7.12502 0 0
rthumb 31.1451 308.203 0
2959
root -5.92052 13.1471 -28.758 1250.14 -65.4005 -167.342
lfemur -69.5902 45.5026 -8.17332
ltibia 81.9355 0 0
lfoot -6.95724 -4.12531 0
ltoes -36.3099 0 0
rfemur -35.236 -19.3124 21.7628
rtibia 93.109 0 0
rfoot -41.0719 -30.9999 0
rtoes -13.3636 0 0
lowerback 16.7222 5.11605 0.808413
upperback -4.39182 7.28244 1.62992
thorax -14.4798 3.36008 -0.728419
lowerneck -3.27189 10.4648 2.12714
upperneck 8.11982 13.7913 0.782487
head 3.21515 6.91167 0.389605
lclavicle 1.2367e-14 -9.22756e-15 0
lhumerus 5.23403 16.0007 81.3459
lradius 90.6079 0 0
lwrist -18.7092 0 0
lhand -40.2191 390.471 0
lfingers 7.12502 0 0
lthumb -13.18 -659.944 0
rclavicle 1.2367e-14 -9.22756e-15 0
rhumerus -58.0854 53.9638 -108.339
rradius 112.14 0 0
rwrist -79.3489 0 0
rhand 5.03898 -384.342 0
rfingers 7.12502 0 0
rthumb 30.4187 308.02 0
2960
root -5.91135 13.1472 -28.759 1248.7 -66.0845 -165.713
lfemur -69.3101 44.1228 -7.9343
ltibia 80.606 0 0
lfoot -6.16544 -3.70441 0
ltoes -36.0701 0 0
rfemur -35.4246 -18.939 22.1664
rtibia 92.7334 0 0
rfoot -40.8484 -31.3085 0
rtoes -12.8802 0 0
lowerback 16.7636 5.11348 0.759592
upperback -4.31328 7.25979 1.58
thorax -14.4123 3.35339 -0.749402
lowerneck -3.20954 10.2334 1.92648
upperneck 7.74268 13.4997 0.725486
head 3.07793 6.76239 0.384206
lclavicle 1.9048e-15 -9.83926e-15 0
lhumerus 5.4427 15.9705 81.0851
lradius 90.4023 0 0
lwrist -17.9815 0 0
lhand -39.8461 390.491 0
lfingers 7.12502 0 0
lthumb -12.8201 -659.907 0
rclavicle 1.9048e-15 -9.83926e-15 0
rhumerus -55.7903 52.677 -106.608
rradius 111.574 0 0
rwrist -78.7584 0 0
rhand 4.09337 -384.46 0
rfingers 7.12502 0 0
rthumb 29.5124 307.781 0
2961
root -5.90218 13.1474 -28.7601 1246.81 -66.9501 -163.594
lfemur -68.9461 42.3968 -7.61807
ltibia 78.9149 0 0
lfoot -5.19371 -3.17738 0
ltoes -35.8043 0 0
rfemur -35.6428 -18.4655 22.6801
rtibia 92.2405 0 0
rfoot -40.568 -31.684 0
rtoes -12.2895 0 0
lowerback 16.8073 5.11382 0.709869
upperback -4.21708 7.23836 1.51584
thorax -14.3235 3.34732 -0.784941
lowerneck -3.12881 9.93494 1.67363
upperneck 7.28353 13.1214 0.669475
head 2.9094 6.56934 0.382684
lclavicle -8.9896e-15 -1.00914e-14 0
lhumerus 5.70641 15.9122 80.7808
lradius 90.15 0 0
lwrist -17.081 0 0
lhand -39.3817 390.518 0
lfingers 7.12502 0 0
lthumb -12.372 -659.86 0
rclavicle -8.9896e-15 -1.00914e-14 0
rhumerus -52.9391 51.0357 -104.483
rradius 110.878 0 0
rwrist -78.0569 0 0
rhand 2.94205 -384.616 0
rfingers 7.12502 0 0
rthumb 28.4088 307.479 0
2962
root -5.89301 13.1475 -28.7611 1244.44 -68.0127 -160.945
lfemur -68.4916 40.2949 -7.21837
ltibia 76.8321 0 0
lfoot -4.0269 -2.53456 0
ltoes -35.512 0 0
rfemur -35.8937 -17.8833 23.3134
rtibia 91.621 0 0
rfoot -40.2261 -32.1328 0
rtoes -11.5822 0 0
lowerback 16.8535 5.11722 0.659134
upperback -4.10163 7.21809 1.43621
thorax -14.2116 3.34184 -0.836214
lowerneck -3.02829 9.56378 1.36404
upperneck 6.7351 12.6491 0.614339
head 2.70682 6.32889 0.385329
lclavicle -2.03257e-14 -9.93923e-15 0
lhumerus 6.02987 15.8244 80.4285
lradius 89.8465 0 0
lwrist -15.9928 0 0
lhand -38.8179 390.553 0
lfingers 7.12502 0 0
lthumb -11.8281 -659.801 0
rclavicle -2.03257e-14 -9.93923e-15 0
rhumerus -49.4836 49.0098 -101.93
rradius 110.04 0 0
rwrist -77.2338 0 0
rhand 1.56667 -384.813 0
rfingers 7.12502 0 0
rthumb 27.0901 307.111 0
